<svg width="24" height="24" viewBox="0 0 24 24" fill="none" xmlns="http://www.w3.org/2000/svg">
<path d="M7 5C6.46957 5 5.96086 5.21071 5.58579 5.58579C5.21071 5.96086 5 6.46957 5 7V17C5 17.5304 5.21071 18.0391 5.58579 18.4142C5.96086 18.7893 6.46957 19 7 19H17C17.5304 19 18.0391 18.7893 18.4142 18.4142C18.7893 18.0391 19 17.5304 19 17V7C19 6.46957 18.7893 5.96086 18.4142 5.58579C18.0391 5.21071 17.5304 5 17 5H7ZM11 15.414L8.293 12.707L9.707 11.293L11 12.586L14.793 8.793L16.207 10.207L11 15.414Z" fill="black"/>
</svg>
